<?xml version="1.0" standalone="no"?>
<!DOCTYPE svg PUBLIC "-//W3C//DTD SVG 20010904//EN"
 "http://www.w3.org/TR/2001/REC-SVG-20010904/DTD/svg10.dtd">
<svg version="1.0" xmlns="http://www.w3.org/2000/svg"
 width="2000.000000pt" height="2000.000000pt" viewBox="0 0 2000.000000 2000.000000"
 preserveAspectRatio="xMidYMid meet">

<g transform="translate(0.000000,2000.000000) scale(0.100000,-0.100000)"
 stroke="none">
<path d="M7660 17590 c-531 -26 -1002 -219 -1464 -599 -264 -219 -536 -598
-669 -936 -40 -103 -101 -290 -118 -361 -57 -251 -64 -768 -15 -1051 63 -356
228 -717 476 -1043 82 -108 315 -346 419 -429 236 -188 449 -302 801 -427 246
-88 235 -87 1298 -93 l932 -6 -768 -770 c-799 -800 -794 -795 -952 -1040 -146
-227 -256 -485 -320 -750 -32 -135 -60 -364 -60 -497 l0 -108 -179 0 c-250 0
-406 -28 -722 -129 -192 -62 -456 -203 -651 -348 -79 -59 -402 -376 -1502
-1477 -770 -771 -1433 -1440 -1472 -1486 -96 -113 -219 -297 -265 -395 -137
-290 -205 -494 -246 -730 -25 -144 -25 -731 0 -885 39 -241 151 -565 274 -790
69 -128 246 -363 363 -484 193 -199 482 -418 679 -516 260 -129 474 -194 801
-246 74 -12 157 -15 380 -11 271 4 293 6 450 36 228 44 548 155 715 248 272
151 641 454 876 720 50 56 113 119 142 141 56 42 241 227 304 304 21 25 74 77
117 115 44 37 120 111 170 163 122 127 153 158 206 205 25 22 77 76 115 120
39 43 295 307 570 585 721 730 794 810 956 1067 97 152 178 326 247 530 71
209 91 330 99 596 l6 217 96 0 c298 0 752 114 1056 264 149 74 214 113 375
223 91 63 600 553 1268 1222 215 215 367 360 372 355 5 -5 11 -375 13 -859 2
-618 7 -870 16 -925 41 -246 56 -317 93 -425 68 -204 152 -387 245 -535 172
-275 429 -549 693 -741 156 -113 514 -288 706 -345 252 -74 381 -87 795 -81
315 4 341 6 454 31 297 65 616 201 860 366 204 138 481 402 631 603 205 273
374 663 428 987 42 249 41 127 41 4205 0 4135 2 3945 -46 4225 -31 185 -98
389 -189 578 -256 530 -641 917 -1180 1183 -235 116 -322 147 -540 188 -58 10
-134 25 -170 32 -51 10 -891 13 -3965 14 -2145 1 -3965 -1 -4045 -5z m7575
-1349 c317 -10 378 -20 514 -83 363 -167 614 -486 672 -855 15 -92 24 -6979
10 -7498 -11 -418 -16 -453 -85 -608 -68 -150 -102 -201 -211 -312 -167 -170
-291 -250 -499 -320 l-108 -37 -232 4 c-220 4 -235 5 -309 31 -364 127 -630
384 -741 717 -59 180 -57 63 -65 2678 -5 1316 -11 2396 -15 2399 -7 7 -201
-184 -2161 -2137 -1676 -1671 -1598 -1595 -1726 -1671 -136 -80 -415 -160
-564 -161 -162 -2 -437 74 -569 156 -300 187 -477 427 -540 731 -50 239 -22
496 75 711 79 174 90 187 1118 1219 2231 2240 2731 2746 2731 2762 0 14 -725
23 -1974 24 -573 1 -1475 4 -2006 8 l-965 8 -70 25 c-327 118 -541 304 -690
599 -89 179 -100 231 -100 499 0 174 3 227 18 278 76 278 239 499 486 660 157
103 320 155 546 175 86 8 7197 5 7460 -2z m-7845 -8125 c218 -48 385 -135 541
-284 174 -166 265 -308 334 -522 l37 -115 -5 -230 -5 -230 -37 -105 c-50 -143
-110 -248 -205 -363 -44 -53 -287 -307 -539 -564 -472 -482 -1975 -1984 -2046
-2045 -68 -58 -178 -144 -215 -166 -79 -49 -226 -105 -355 -137 -89 -22 -339
-31 -415 -16 -30 6 -86 18 -125 25 -74 15 -179 53 -217 80 -12 9 -30 16 -38
16 -24 0 -167 107 -256 192 -105 99 -171 192 -232 325 -81 177 -96 257 -96
503 1 179 4 216 23 289 25 95 96 258 149 341 48 75 2743 2770 2832 2832 136
94 213 125 475 192 42 10 322 -2 395 -18z"/>
</g>
</svg>
