<svg xmlns="http://www.w3.org/2000/svg" xmlns:xlink="http://www.w3.org/1999/xlink" width="500" zoomAndPan="magnify" viewBox="0 0 375 74.999997" height="100" preserveAspectRatio="xMidYMid meet" version="1.0"><defs><g/><clipPath id="227825ff9d"><path d="M 2.898438 0.96875 L 75.648438 0.96875 L 75.648438 73.71875 L 2.898438 73.71875 Z M 2.898438 0.96875 " clip-rule="nonzero"/></clipPath><clipPath id="693faf70e5"><path d="M 39.273438 0.96875 C 19.183594 0.96875 2.898438 17.253906 2.898438 37.34375 C 2.898438 57.433594 19.183594 73.71875 39.273438 73.71875 C 59.363281 73.71875 75.648438 57.433594 75.648438 37.34375 C 75.648438 17.253906 59.363281 0.96875 39.273438 0.96875 " clip-rule="nonzero"/></clipPath><linearGradient x1="-0.000000159086" gradientTransform="matrix(1.13672, 0, 0, 1.13672, 2.900067, 0.96704)" y1="0" x2="63.99995" gradientUnits="userSpaceOnUse" y2="0" id="070335db3b"><stop stop-opacity="1" stop-color="rgb(100%, 19.198608%, 19.198608%)" offset="0"/><stop stop-opacity="1" stop-color="rgb(100%, 19.389343%, 19.198608%)" offset="0.015625"/><stop stop-opacity="1" stop-color="rgb(100%, 19.799805%, 19.398499%)" offset="0.0195312"/><stop stop-opacity="1" stop-color="rgb(100%, 20.021057%, 19.599915%)" offset="0.0234375"/><stop stop-opacity="1" stop-color="rgb(100%, 20.210266%, 19.599915%)" offset="0.03125"/><stop stop-opacity="1" stop-color="rgb(100%, 20.401001%, 19.599915%)" offset="0.0390625"/><stop stop-opacity="1" stop-color="rgb(100%, 20.597839%, 19.599915%)" offset="0.046875"/><stop stop-opacity="1" stop-color="rgb(100%, 20.988464%, 19.599915%)" offset="0.0546875"/><stop stop-opacity="1" stop-color="rgb(100%, 21.379089%, 19.786072%)" offset="0.0625"/><stop stop-opacity="1" stop-color="rgb(100%, 21.594238%, 19.985962%)" offset="0.0703125"/><stop stop-opacity="1" stop-color="rgb(100%, 21.810913%, 19.999695%)" offset="0.078125"/><stop stop-opacity="1" stop-color="rgb(100%, 22.201538%, 19.999695%)" offset="0.0859375"/><stop stop-opacity="1" stop-color="rgb(100%, 22.543335%, 19.999695%)" offset="0.09375"/><stop stop-opacity="1" stop-color="rgb(100%, 22.694397%, 20.188904%)" offset="0.101563"/><stop stop-opacity="1" stop-color="rgb(100%, 22.90802%, 20.388794%)" offset="0.105469"/><stop stop-opacity="1" stop-color="rgb(100%, 23.118591%, 20.399475%)" offset="0.109375"/><stop stop-opacity="1" stop-color="rgb(100%, 23.313904%, 20.399475%)" offset="0.117188"/><stop stop-opacity="1" stop-color="rgb(100%, 23.704529%, 20.399475%)" offset="0.125"/><stop stop-opacity="1" stop-color="rgb(100%, 23.899841%, 20.594788%)" offset="0.132813"/><stop stop-opacity="1" stop-color="rgb(100%, 24.08905%, 20.794678%)" offset="0.140625"/><stop stop-opacity="1" stop-color="rgb(100%, 24.499512%, 20.799255%)" offset="0.144531"/><stop stop-opacity="1" stop-color="rgb(100%, 24.720764%, 20.799255%)" offset="0.148438"/><stop stop-opacity="1" stop-color="rgb(100%, 24.909973%, 20.799255%)" offset="0.15625"/><stop stop-opacity="1" stop-color="rgb(100%, 25.100708%, 20.800781%)" offset="0.164063"/><stop stop-opacity="1" stop-color="rgb(100%, 25.297546%, 20.99762%)" offset="0.171875"/><stop stop-opacity="1" stop-color="rgb(100%, 25.688171%, 21.195984%)" offset="0.179688"/><stop stop-opacity="1" stop-color="rgb(100%, 26.078796%, 21.199036%)" offset="0.1875"/><stop stop-opacity="1" stop-color="rgb(100%, 26.293945%, 21.206665%)" offset="0.195312"/><stop stop-opacity="1" stop-color="rgb(100%, 26.51062%, 21.406555%)" offset="0.203125"/><stop stop-opacity="1" stop-color="rgb(100%, 26.901245%, 21.598816%)" offset="0.210938"/><stop stop-opacity="1" stop-color="rgb(100%, 27.29187%, 21.598816%)" offset="0.21875"/><stop stop-opacity="1" stop-color="rgb(100%, 27.651978%, 21.607971%)" offset="0.234375"/><stop stop-opacity="1" stop-color="rgb(100%, 28.013611%, 21.807861%)" offset="0.242188"/><stop stop-opacity="1" stop-color="rgb(100%, 28.404236%, 21.998596%)" offset="0.25"/><stop stop-opacity="1" stop-color="rgb(100%, 28.790283%, 21.998596%)" offset="0.265625"/><stop stop-opacity="1" stop-color="rgb(100%, 29.200745%, 22.198486%)" offset="0.269531"/><stop stop-opacity="1" stop-color="rgb(100%, 29.420471%, 22.399902%)" offset="0.273438"/><stop stop-opacity="1" stop-color="rgb(100%, 29.60968%, 22.399902%)" offset="0.28125"/><stop stop-opacity="1" stop-color="rgb(100%, 29.800415%, 22.399902%)" offset="0.289063"/><stop stop-opacity="1" stop-color="rgb(100%, 29.997253%, 22.399902%)" offset="0.296875"/><stop stop-opacity="1" stop-color="rgb(100%, 30.387878%, 22.399902%)" offset="0.304688"/><stop stop-opacity="1" stop-color="rgb(100%, 30.778503%, 22.540283%)" offset="0.3125"/><stop stop-opacity="1" stop-color="rgb(100%, 30.993652%, 22.689819%)" offset="0.320313"/><stop stop-opacity="1" stop-color="rgb(100%, 31.210327%, 22.698975%)" offset="0.328125"/><stop stop-opacity="1" stop-color="rgb(100%, 31.600952%, 22.698975%)" offset="0.335938"/><stop stop-opacity="1" stop-color="rgb(100%, 31.991577%, 22.698975%)" offset="0.34375"/><stop stop-opacity="1" stop-color="rgb(100%, 32.192993%, 22.888184%)" offset="0.351563"/><stop stop-opacity="1" stop-color="rgb(100%, 32.357788%, 23.088074%)" offset="0.359375"/><stop stop-opacity="1" stop-color="rgb(100%, 32.713318%, 23.098755%)" offset="0.367188"/><stop stop-opacity="1" stop-color="rgb(100%, 33.103943%, 23.098755%)" offset="0.375"/><stop stop-opacity="1" stop-color="rgb(100%, 33.299255%, 23.294067%)" offset="0.382812"/><stop stop-opacity="1" stop-color="rgb(100%, 33.48999%, 23.493958%)" offset="0.390625"/><stop stop-opacity="1" stop-color="rgb(100%, 33.900452%, 23.498535%)" offset="0.394531"/><stop stop-opacity="1" stop-color="rgb(100%, 34.121704%, 23.498535%)" offset="0.398438"/><stop stop-opacity="1" stop-color="rgb(100%, 34.309387%, 23.498535%)" offset="0.40625"/><stop stop-opacity="1" stop-color="rgb(100%, 34.500122%, 23.500061%)" offset="0.414062"/><stop stop-opacity="1" stop-color="rgb(100%, 34.69696%, 23.696899%)" offset="0.421875"/><stop stop-opacity="1" stop-color="rgb(100%, 35.087585%, 23.895264%)" offset="0.429688"/><stop stop-opacity="1" stop-color="rgb(100%, 35.47821%, 23.899841%)" offset="0.4375"/><stop stop-opacity="1" stop-color="rgb(100%, 35.693359%, 23.907471%)" offset="0.445312"/><stop stop-opacity="1" stop-color="rgb(100%, 35.910034%, 24.107361%)" offset="0.453125"/><stop stop-opacity="1" stop-color="rgb(100%, 36.300659%, 24.299622%)" offset="0.460938"/><stop stop-opacity="1" stop-color="rgb(100%, 36.691284%, 24.299622%)" offset="0.46875"/><stop stop-opacity="1" stop-color="rgb(100%, 36.8927%, 24.299622%)" offset="0.476563"/><stop stop-opacity="1" stop-color="rgb(100%, 37.106323%, 24.308777%)" offset="0.480469"/><stop stop-opacity="1" stop-color="rgb(100%, 37.313843%, 24.317932%)" offset="0.484375"/><stop stop-opacity="1" stop-color="rgb(100%, 37.460327%, 24.508667%)" offset="0.492188"/><stop stop-opacity="1" stop-color="rgb(100%, 37.80365%, 24.699402%)" offset="0.5"/><stop stop-opacity="1" stop-color="rgb(100%, 38.189697%, 24.699402%)" offset="0.515625"/><stop stop-opacity="1" stop-color="rgb(100%, 38.600159%, 24.899292%)" offset="0.519531"/><stop stop-opacity="1" stop-color="rgb(100%, 38.821411%, 25.099182%)" offset="0.523438"/><stop stop-opacity="1" stop-color="rgb(100%, 39.01062%, 25.099182%)" offset="0.53125"/><stop stop-opacity="1" stop-color="rgb(100%, 39.201355%, 25.099182%)" offset="0.539062"/><stop stop-opacity="1" stop-color="rgb(100%, 39.398193%, 25.099182%)" offset="0.546875"/><stop stop-opacity="1" stop-color="rgb(100%, 39.788818%, 25.099182%)" offset="0.554688"/><stop stop-opacity="1" stop-color="rgb(100%, 40.179443%, 25.286865%)" offset="0.5625"/><stop stop-opacity="1" stop-color="rgb(100%, 40.394592%, 25.486755%)" offset="0.570312"/><stop stop-opacity="1" stop-color="rgb(100%, 40.609741%, 25.498962%)" offset="0.578125"/><stop stop-opacity="1" stop-color="rgb(100%, 41.000366%, 25.498962%)" offset="0.585938"/><stop stop-opacity="1" stop-color="rgb(100%, 41.390991%, 25.692749%)" offset="0.59375"/><stop stop-opacity="1" stop-color="rgb(100%, 41.592407%, 25.892639%)" offset="0.601562"/><stop stop-opacity="1" stop-color="rgb(100%, 41.807556%, 25.898743%)" offset="0.605469"/><stop stop-opacity="1" stop-color="rgb(100%, 42.018127%, 25.898743%)" offset="0.609375"/><stop stop-opacity="1" stop-color="rgb(100%, 42.211914%, 25.898743%)" offset="0.617188"/><stop stop-opacity="1" stop-color="rgb(100%, 42.552185%, 25.898743%)" offset="0.625"/><stop stop-opacity="1" stop-color="rgb(100%, 42.698669%, 26.094055%)" offset="0.632813"/><stop stop-opacity="1" stop-color="rgb(100%, 42.889404%, 26.293945%)" offset="0.640625"/><stop stop-opacity="1" stop-color="rgb(100%, 43.299866%, 26.298523%)" offset="0.644531"/><stop stop-opacity="1" stop-color="rgb(100%, 43.521118%, 26.298523%)" offset="0.648438"/><stop stop-opacity="1" stop-color="rgb(100%, 43.710327%, 26.298523%)" offset="0.65625"/><stop stop-opacity="1" stop-color="rgb(100%, 43.901062%, 26.300049%)" offset="0.664063"/><stop stop-opacity="1" stop-color="rgb(100%, 44.0979%, 26.496887%)" offset="0.671875"/><stop stop-opacity="1" stop-color="rgb(100%, 44.488525%, 26.695251%)" offset="0.679688"/><stop stop-opacity="1" stop-color="rgb(100%, 44.87915%, 26.699829%)" offset="0.6875"/><stop stop-opacity="1" stop-color="rgb(100%, 45.094299%, 26.707458%)" offset="0.695312"/><stop stop-opacity="1" stop-color="rgb(100%, 45.309448%, 26.907349%)" offset="0.703125"/><stop stop-opacity="1" stop-color="rgb(100%, 45.700073%, 27.099609%)" offset="0.710938"/><stop stop-opacity="1" stop-color="rgb(100%, 46.090698%, 27.099609%)" offset="0.71875"/><stop stop-opacity="1" stop-color="rgb(100%, 46.292114%, 27.099609%)" offset="0.726562"/><stop stop-opacity="1" stop-color="rgb(100%, 46.508789%, 27.108765%)" offset="0.730469"/><stop stop-opacity="1" stop-color="rgb(100%, 46.717834%, 27.11792%)" offset="0.734375"/><stop stop-opacity="1" stop-color="rgb(100%, 46.913147%, 27.308655%)" offset="0.742188"/><stop stop-opacity="1" stop-color="rgb(100%, 47.303772%, 27.49939%)" offset="0.75"/><stop stop-opacity="1" stop-color="rgb(100%, 47.640991%, 27.49939%)" offset="0.765625"/><stop stop-opacity="1" stop-color="rgb(100%, 48.002625%, 27.648926%)" offset="0.769531"/><stop stop-opacity="1" stop-color="rgb(100%, 48.220825%, 27.799988%)" offset="0.773438"/><stop stop-opacity="1" stop-color="rgb(100%, 48.410034%, 27.799988%)" offset="0.78125"/><stop stop-opacity="1" stop-color="rgb(100%, 48.600769%, 27.799988%)" offset="0.789062"/><stop stop-opacity="1" stop-color="rgb(100%, 48.797607%, 27.799988%)" offset="0.796875"/><stop stop-opacity="1" stop-color="rgb(100%, 49.188232%, 27.799988%)" offset="0.804688"/><stop stop-opacity="1" stop-color="rgb(100%, 49.578857%, 27.986145%)" offset="0.8125"/><stop stop-opacity="1" stop-color="rgb(100%, 49.794006%, 28.186035%)" offset="0.820312"/><stop stop-opacity="1" stop-color="rgb(100%, 50.010681%, 28.199768%)" offset="0.828125"/><stop stop-opacity="1" stop-color="rgb(100%, 50.401306%, 28.199768%)" offset="0.835938"/><stop stop-opacity="1" stop-color="rgb(100%, 50.791931%, 28.393555%)" offset="0.84375"/><stop stop-opacity="1" stop-color="rgb(100%, 50.993347%, 28.593445%)" offset="0.851562"/><stop stop-opacity="1" stop-color="rgb(100%, 51.208496%, 28.599548%)" offset="0.855469"/><stop stop-opacity="1" stop-color="rgb(100%, 51.417542%, 28.599548%)" offset="0.859375"/><stop stop-opacity="1" stop-color="rgb(100%, 51.612854%, 28.599548%)" offset="0.867188"/><stop stop-opacity="1" stop-color="rgb(100%, 52.003479%, 28.599548%)" offset="0.875"/><stop stop-opacity="1" stop-color="rgb(100%, 52.198792%, 28.794861%)" offset="0.882812"/><stop stop-opacity="1" stop-color="rgb(100%, 52.342224%, 28.994751%)" offset="0.890625"/><stop stop-opacity="1" stop-color="rgb(100%, 52.702332%, 28.999329%)" offset="0.894531"/><stop stop-opacity="1" stop-color="rgb(100%, 52.920532%, 28.999329%)" offset="0.898438"/><stop stop-opacity="1" stop-color="rgb(100%, 53.109741%, 28.999329%)" offset="0.90625"/><stop stop-opacity="1" stop-color="rgb(100%, 53.300476%, 29.000854%)" offset="0.914062"/><stop stop-opacity="1" stop-color="rgb(100%, 53.497314%, 29.197693%)" offset="0.921875"/><stop stop-opacity="1" stop-color="rgb(100%, 53.887939%, 29.396057%)" offset="0.929688"/><stop stop-opacity="1" stop-color="rgb(100%, 54.278564%, 29.399109%)" offset="0.9375"/><stop stop-opacity="1" stop-color="rgb(100%, 54.493713%, 29.406738%)" offset="0.945312"/><stop stop-opacity="1" stop-color="rgb(100%, 54.710388%, 29.606628%)" offset="0.953125"/><stop stop-opacity="1" stop-color="rgb(100%, 55.101013%, 29.798889%)" offset="0.960938"/><stop stop-opacity="1" stop-color="rgb(100%, 55.491638%, 29.798889%)" offset="0.96875"/><stop stop-opacity="1" stop-color="rgb(100%, 55.693054%, 29.798889%)" offset="0.976562"/><stop stop-opacity="1" stop-color="rgb(100%, 55.908203%, 29.808044%)" offset="0.980469"/><stop stop-opacity="1" stop-color="rgb(100%, 56.117249%, 29.8172%)" offset="0.984375"/><stop stop-opacity="1" stop-color="rgb(100%, 56.312561%, 30.007935%)" offset="0.992188"/><stop stop-opacity="1" stop-color="rgb(100%, 56.703186%, 30.198669%)" offset="1"/></linearGradient><clipPath id="a5d4fd0df9"><path d="M 41.046875 27.558594 L 62.625 27.558594 L 62.625 54.332031 L 41.046875 54.332031 Z M 41.046875 27.558594 " clip-rule="nonzero"/></clipPath><clipPath id="5ca7b0b4c4"><path d="M 15.96875 27.558594 L 37.5625 27.558594 L 37.5625 54.332031 L 15.96875 54.332031 Z M 15.96875 27.558594 " clip-rule="nonzero"/></clipPath></defs><g fill="#000000" fill-opacity="1"><g transform="translate(89.797126, 57.732733)"><g><path d="M 20.671875 0.722656 L 21.515625 0.722656 L 41.527344 -42.066406 L 38.402344 -42.066406 L 21.273438 -4.6875 L 20.914062 -4.6875 L 3.847656 -42.066406 L 0.722656 -42.066406 Z M 20.671875 0.722656 "/></g></g></g><g fill="#000000" fill-opacity="1"><g transform="translate(132.04097, 57.732733)"><g><path d="M 20.371094 0.722656 C 25.902344 0.722656 31.191406 -1.082031 34.855469 -5.226562 L 33.171875 -7.210938 C 30.046875 -3.484375 25.300781 -1.683594 20.371094 -1.683594 C 11.839844 -1.683594 6.128906 -7.03125 5.648438 -14.902344 L 36.539062 -14.902344 L 36.539062 -16.046875 C 36.539062 -25.902344 29.148438 -32.753906 19.773438 -32.753906 C 10.457031 -32.753906 3.003906 -25.902344 3.003906 -16.046875 C 3.003906 -6.128906 9.914062 0.722656 20.371094 0.722656 Z M 5.648438 -17.246094 C 6.25 -25.058594 12.320312 -30.347656 19.773438 -30.347656 C 27.285156 -30.347656 33.355469 -25.058594 33.894531 -17.246094 Z M 5.648438 -17.246094 "/></g></g></g><g fill="#000000" fill-opacity="1"><g transform="translate(171.580725, 57.732733)"><g><path d="M 4.6875 0 L 7.273438 0 L 7.273438 -17.726562 C 7.511719 -25.359375 11.597656 -30.289062 18.808594 -30.289062 C 20.191406 -30.289062 20.734375 -30.230469 21.875 -29.867188 L 22.234375 -32.390625 C 21.09375 -32.632812 20.371094 -32.753906 18.808594 -32.753906 C 13.160156 -32.753906 9.316406 -29.929688 7.390625 -25.300781 L 7.03125 -25.300781 L 6.191406 -32.089844 L 4.6875 -32.089844 Z M 4.6875 0 "/></g></g></g><g fill="#000000" fill-opacity="1"><g transform="translate(194.895962, 57.732733)"><g><path d="M 18.691406 0.722656 C 22.714844 0.722656 25.300781 -0.539062 25.722656 -0.660156 L 25.179688 -3.003906 C 24.878906 -2.824219 22.535156 -1.742188 18.871094 -1.742188 C 13.582031 -1.742188 11.296875 -4.566406 11.296875 -10.515625 L 11.296875 -29.746094 L 25.722656 -29.746094 L 25.722656 -32.089844 L 11.296875 -32.089844 L 11.296875 -38.824219 L 10.097656 -38.824219 L 0.601562 -30.890625 L 0.601562 -29.929688 L 8.714844 -29.929688 L 8.714844 -10.214844 C 8.714844 -3.125 11.960938 0.722656 18.691406 0.722656 Z M 18.691406 0.722656 "/></g></g></g><g fill="#000000" fill-opacity="1"><g transform="translate(222.057011, 57.732733)"><g><path d="M 5.769531 -40.566406 C 6.789062 -40.566406 7.632812 -41.40625 7.632812 -42.488281 C 7.632812 -43.511719 6.789062 -44.351562 5.769531 -44.351562 C 4.746094 -44.351562 3.847656 -43.511719 3.847656 -42.488281 C 3.847656 -41.40625 4.746094 -40.566406 5.769531 -40.566406 Z M 4.445312 0 L 7.089844 0 L 7.089844 -32.089844 L 4.445312 -32.089844 Z M 4.445312 0 "/></g></g></g><g fill="#000000" fill-opacity="1"><g transform="translate(233.534361, 57.732733)"><g><path d="M 20.972656 0.722656 C 25.722656 0.722656 29.808594 -0.78125 33.234375 -3.425781 L 33.234375 -6.371094 C 29.449219 -3.546875 25.722656 -1.683594 20.972656 -1.683594 C 12.320312 -1.683594 5.589844 -7.570312 5.589844 -16.046875 C 5.589844 -24.519531 11.898438 -30.347656 19.773438 -30.347656 C 24.277344 -30.347656 27.886719 -28.726562 30.347656 -25.960938 L 32.089844 -27.644531 C 29.148438 -31.070312 24.578125 -32.753906 19.773438 -32.753906 C 10.457031 -32.753906 3.003906 -25.902344 3.003906 -16.046875 C 3.003906 -6.128906 10.816406 0.722656 20.972656 0.722656 Z M 20.972656 0.722656 "/></g></g></g><g fill="#000000" fill-opacity="1"><g transform="translate(268.687486, 57.732733)"><g><path d="M 19.53125 0.722656 C 25.660156 0.722656 30.949219 -2.402344 33.773438 -7.511719 L 34.136719 -7.511719 L 34.136719 0 L 36.71875 0 L 36.71875 -32.089844 L 35.335938 -32.089844 L 34.375 -24.097656 L 34.015625 -24.097656 C 31.308594 -29.449219 25.839844 -32.753906 19.53125 -32.753906 C 10.398438 -32.753906 3.125 -25.902344 3.125 -16.046875 C 3.125 -6.128906 10.398438 0.722656 19.53125 0.722656 Z M 19.890625 -1.683594 C 12.019531 -1.683594 5.710938 -7.570312 5.710938 -16.046875 C 5.710938 -24.519531 12.078125 -30.347656 19.890625 -30.347656 C 27.765625 -30.347656 34.074219 -24.519531 34.074219 -16.046875 C 34.074219 -7.570312 27.765625 -1.683594 19.890625 -1.683594 Z M 19.890625 -1.683594 "/></g></g></g><g fill="#000000" fill-opacity="1"><g transform="translate(310.090061, 57.732733)"><g><path d="M 4.6875 0 L 7.273438 0 L 7.273438 -46.816406 L 4.6875 -46.816406 Z M 4.6875 0 "/></g></g></g><g fill="#000000" fill-opacity="1"><g transform="translate(322.048131, 57.732733)"><g><path d="M 0.722656 0 L 3.90625 0 L 7.8125 -8.652344 L 34.496094 -8.652344 L 38.460938 0 L 41.585938 0 L 21.574219 -42.730469 L 20.734375 -42.730469 Z M 8.953125 -10.996094 L 20.972656 -37.261719 L 21.335938 -37.261719 L 33.414062 -10.996094 Z M 8.953125 -10.996094 "/></g></g></g><g fill="#000000" fill-opacity="1"><g transform="translate(364.352061, 57.732733)"><g><path d="M 4.808594 0 L 7.632812 0 L 7.632812 -42.066406 L 4.808594 -42.066406 Z M 4.808594 0 "/></g></g></g><g clip-path="url(#227825ff9d)"><g clip-path="url(#693faf70e5)"><path fill="url(#070335db3b)" d="M 2.898438 0.96875 L 2.898438 73.71875 L 75.648438 73.71875 L 75.648438 0.96875 Z M 2.898438 0.96875 " fill-rule="nonzero"/></g></g><g clip-path="url(#a5d4fd0df9)"><path fill="#ffffff" d="M 42.335938 46.378906 L 62.625 27.558594 L 55.289062 41.664062 L 46.320312 46.378906 L 54.339844 43.292969 L 51.574219 46.378906 L 45.054688 48.734375 L 50.839844 47.636719 L 47.953125 51.265625 L 43.605469 51.265625 L 41.058594 54.332031 L 42.335938 46.378906 " fill-opacity="1" fill-rule="nonzero"/></g><g clip-path="url(#5ca7b0b4c4)"><path fill="#ffffff" d="M 36.257812 46.378906 L 15.96875 27.558594 L 23.304688 41.664062 L 32.273438 46.378906 L 24.253906 43.292969 L 27.019531 46.378906 L 33.542969 48.734375 L 27.753906 47.636719 L 30.644531 51.265625 L 34.992188 51.265625 L 37.535156 54.332031 L 36.257812 46.378906 " fill-opacity="1" fill-rule="nonzero"/></g></svg>